# xmcd CD database file
#
# Track frame offsets:
#	150
#	25145
#	55347
#	103657
#	140005
#	180120
#	228200
#	266405
#	276537
#	308647
#
# Disc length: 4627 seconds
#
# Revision: 0
# Processed by: cddbd v1.5.2PL0 Copyright (c) Steve Scherf et al.
# Submitted via: CDex 1.70beta2
#
DISCID=8312110a
DTITLE=Carme Canela - Porgy and Bess
DYEAR=1998
DGENRE=Jazz
TTITLE0=Jasbo Brown Blues
TTITLE1=My Man's Gone Now
TTITLE2=Summertime
TTITLE3=Bess, You Are My Woman
TTITLE4=I Loves You Porgy
TTITLE5=Here Come The Honey Man
TTITLE6=Buzzard Song
TTITLE7=I Got Plenty O'Nuttin'
TTITLE8=Gone, Gone, Gone
TTITLE9=There's A Boat That's Leaving Soon For New York
EXTD=YEAR: 1998
EXTT0=
EXTT1=
EXTT2=
EXTT3=
EXTT4=
EXTT5=
EXTT6=
EXTT7=
EXTT8=
EXTT9=
PLAYORDER=
